{"title":"The.Wolverine.2013.EXTENDED.720p.BRRip.x264-Fastbet99","uid":9159876,"size":1787987072,"categoryP":"video","categoryS":"hd___movies","magnet":"?xt=urn:btih:d543084d3f7b99bc5364c499343a217c590ab4b7&amp;dn=The.Wolverine.2013.EXTENDED.720p.BRRip.x264-Fastbet99&amp;tr=udp%3A%2F%2Ftracker.openbittorrent.com%3A80&amp;tr=udp%3A%2F%2Fopen.demonii.com%3A1337&amp;tr=udp%3A%2F%2Ftracker.coppersurfer.tk%3A6969&amp;tr=udp%3A%2F%2Fexodus.desync.com%3A6969","seeders":1,"leechers":1,"uploader":"Fastbet99","files":-1,"time":1383855664,"description":"The Wolverine (2013)\n\nIMDB Info\t\t\t\t : http://www.imdb.com/title/tt1430132\n\nSource\t\t\t\t\t : PHD (Thanks)\nComplete name                            : The.Wolverine.2013.EXTENDED.720p.BRRip.x264-Fastbet99.mp4\nFormat                                   : MPEG-4\nFormat profile                           : Base Media\nCodec ID                                 : isom\nFile size                                : 1.67 GiB\nDuration                                 : 2h 18mn\nOverall bit rate mode                    : Variable\nOverall bit rate                         : 1 724 Kbps\n\nVideo\nID                                       : 1\nFormat                                   : AVC\nFormat/Info                              : Advanced Video Codec\nFormat profile                           : &lt;a class=&quot;__cf_email__&quot; href=&quot;/cdn-cgi/l/email-protection&quot; data-cfemail=&quot;6c24050b042c2058425d&quot;&gt;[email&amp;#160;protected]&lt;/a&gt;&lt;script cf-hash='f9e31' type=&quot;text/javascript&quot;&gt;\n/* &lt;![CDATA[ */!function(){try{var t=&quot;currentScript&quot;in document?document.currentScript:function(){for(var t=document.getElementsByTagName(&quot;script&quot;),e=t.length;e--;)if(t[e].getAttribute(&quot;cf-hash&quot;))return t[e]}();if(t&amp;&amp;t.previousSibling){var e,r,n,i,c=t.previousSibling,a=c.getAttribute(&quot;data-cfemail&quot;);if(a){for(e=&quot;&quot;,r=parseInt(a.substr(0,2),16),n=2;a.length-n;n+=2)i=parseInt(a.substr(n,2),16)^r,e+=String.fromCharCode(i);e=document.createTextNode(e),c.parentNode.replaceChild(e,c)}}}catch(u){}}();/* ]]&gt; */&lt;/script&gt;\nFormat settings, CABAC                   : Yes\nFormat settings, ReFrames                : 4 frames\nCodec ID                                 : avc1\nCodec ID/Info                            : Advanced Video Coding\nDuration                                 : 2h 18mn\nBit rate                                 : 1 619 Kbps\nMaximum bit rate                         : 11.1 Mbps\nWidth                                    : 1 280 pixels\nHeight                                   : 532 pixels\nDisplay aspect ratio                     : 2.40:1\nFrame rate mode                          : Constant\nFrame rate                               : 23.976 fps\nColor space                              : YUV\nChroma subsampling                       : 4:2:0\nBit depth                                : 8 bits\nScan type                                : Progressive\nBits/(Pixel*Frame)                       : 0.099\nStream size                              : 1.56 GiB (94%)\nWriting library                          : x264 core 133 r2334 a3ac64b\n\nAudio\nID                                       : 2\nFormat                                   : AAC\nFormat/Info                              : Advanced Audio Codec\nFormat profile                           : LC\nCodec ID                                 : 40\nDuration                                 : 2h 18mn\nBit rate mode                            : Variable\nBit rate                                 : 96.0 Kbps\nMaximum bit rate                         : 132 Kbps\nChannel(s)                               : 2 channels\nChannel positions                        : Front: L R\nSampling rate                            : 48.0 KHz\nCompression mode                         : Lossy\nStream size                              : 94.8 MiB (6%)\nLanguage                                 : English\n\nText #1\nID                                       : 3\nFormat                                   : mp4s\nCodec ID                                 : E0\nDuration                                 : 2h 11mn\nBit rate mode                            : Variable\nBit rate                                 : 3 560 bps\nMaximum bit rate                         : 65.4 Kbps\nStream size                              : 3.34 MiB (0%)\nLanguage                                 : English\n\nText #2\nID                                       : 4\nFormat                                   : mp4s\nCodec ID                                 : E0\nDuration                                 : 2h 5mn\nBit rate mode                            : Variable\nBit rate                                 : 176 bps\nMaximum bit rate                         : 25.2 Kbps\nStream size                              : 162 KiB (0%)\nLanguage                                 : English\n\nText #3\nID                                       : 5\nFormat                                   : mp4s\nCodec ID                                 : E0\nDuration                                 : 2h 18mn\nBit rate mode                            : Variable\nBit rate                                 : 168 bps\nMaximum bit rate                         : 32.2 Kbps\nStream size                              : 174 KiB (0%)\nLanguage                                 : French\n\nText #4\nID                                       : 6\nFormat                                   : mp4s\nCodec ID                                 : E0\nDuration                                 : 2h 17mn\nBit rate mode                            : Variable\nBit rate                                 : 2 320 bps\nMaximum bit rate                         : 55.6 Kbps\nStream size                              : 2.29 MiB (0%)\nLanguage                                 : Spanish\n\nText #5\nID                                       : 7\nFormat                                   : mp4s\nCodec ID                                 : E0\nDuration                                 : 2h 18mn\nBit rate mode                            : Variable\nBit rate                                 : 2 216 bps\nMaximum bit rate                         : 58.9 Kbps\nStream size                              : 2.19 MiB (0%)\nLanguage                                 : Portuguese\nEncoder\t\t\t\t\t : Fastbet99\n\nScreenshots\n &lt;a href=&quot;\nhttp://lookpic.com/O/i2/534/VWwD1mxf.jpeg&quot; rel=&quot;nofollow&quot; target=&quot;_NEW&quot;&gt;\nhttp://lookpic.com/O/i2/534/VWwD1mxf.jpeg&lt;/a&gt;\n\nStairway To heaven - Help People With Keep Seed As Long You Can","torrent":{"xt":"urn:btih:d543084d3f7b99bc5364c499343a217c590ab4b7","amp;dn":"The.Wolverine.2013.EXTENDED.720p.BRRip.x264-Fastbet99","amp;tr":["udp%3A%2F%2Ftracker.openbittorrent.com%3A80","udp%3A%2F%2Fopen.demonii.com%3A1337","udp%3A%2F%2Ftracker.coppersurfer.tk%3A6969","udp%3A%2F%2Fexodus.desync.com%3A6969"],"infoHash":"d543084d3f7b99bc5364c499343a217c590ab4b7","infoHashBuffer":{"type":"Buffer","data":[213,67,8,77,63,123,153,188,83,100,196,153,52,58,33,124,89,10,180,183]},"announce":[],"urlList":[]}}